<svg xmlns="http://www.w3.org/2000/svg" width="19" height="18"><style></style><g id="footer"><g id="share"><g id="social icons"><path id="Shape 11" d="M10.6 8.22v-.03c0 .01-.01.02-.01.03h.01zM16.82 1H3.18C2.53 1 2 1.51 2 2.15v13.7c0 .64.53 1.15 1.18 1.15h13.64c.65 0 1.18-.51 1.18-1.15V2.15C18 1.51 17.47 1 16.82 1zM6.85 14.39H4.43V7.17h2.42v7.22zM5.64 6.18h-.01c-.82 0-1.34-.55-1.34-1.25s.54-1.24 1.37-1.24c.82 0 1.33.54 1.35 1.24 0 .7-.53 1.25-1.37 1.25zm9.92 8.21h-2.41v-3.86c0-.97-.35-1.64-1.23-1.64-.66 0-1.06.45-1.24.88-.06.16-.08.37-.08.59v4.03H8.19s.03-6.54 0-7.22h2.41v1.02c.33-.49.9-1.19 2.18-1.19 1.59 0 2.78 1.03 2.78 3.25v4.14z" fill="#fff"/></g></g></g></svg>