<svg xmlns="http://www.w3.org/2000/svg" width="19" height="19"><style></style><g id="team"><g id="team 2"><g id="social icons"><path id="Shape 11" d="M9.6 9.22v-.03c0 .01-.01.02-.01.03h.01zM15.82 2H2.18C1.53 2 1 2.51 1 3.15v13.7c0 .64.53 1.15 1.18 1.15h13.64c.65 0 1.18-.51 1.18-1.15V3.15C17 2.51 16.47 2 15.82 2zM5.85 15.39H3.43V8.17h2.42v7.22zM4.64 7.18h-.01c-.82 0-1.34-.55-1.34-1.25s.54-1.24 1.37-1.24c.82 0 1.33.54 1.35 1.24 0 .7-.53 1.25-1.37 1.25zm9.92 8.21h-2.41v-3.86c0-.97-.35-1.64-1.23-1.64-.66 0-1.06.45-1.24.88-.06.16-.08.37-.08.59v4.03H7.19s.03-6.54 0-7.22H9.6v1.02C9.93 8.7 10.5 8 11.78 8c1.59 0 2.78 1.03 2.78 3.25v4.14z" fill="#c6cacc"/></g></g></g></svg>