<svg xmlns="http://www.w3.org/2000/svg" width="23" height="17"><style></style><g id="team"><g id="team 1"><g id="social icons"><path id="Shape 3" d="M17 4.28c-.01 0-.03-.02-.04-.03-.75-.66-1.63-.98-2.64-.94l-.03-.07h.02c.92-.2 1.46-.41 1.62-.63.06-.18-.01-.28-.21-.3-.46.06-.89.15-1.27.29.48-.29.67-.49.57-.6-.48.01-.99.24-1.53.69.2-.32.28-.49.23-.52-.26.16-.48.34-.68.53-.4.43-.72.83-.97 1.19l-.02.03c-.64.98-1.09 1.97-1.36 2.98l-.1.07-.01.02c-.39-.46-.85-.84-1.41-1.15-.65-.4-1.42-.79-2.3-1.16-.97-.47-1.95-.86-2.94-1.16-.01 1.05.54 1.88 1.62 2.49v.02c-.39-.01-.75.04-1.11.15.07.97.8 1.64 2.18 2.01v.02c-.55-.03-.99.15-1.34.52.45.84 1.26 1.24 2.42 1.21-.23.11-.41.23-.53.37-.21.21-.28.46-.21.74.25.43.7.63 1.36.6l.04.04c-.01.01-.02.01-.02.02-1.14 1.11-2.52 1.61-4.14 1.51l-.02.01c-.99-.01-2.04-.45-3.18-1.34 1.15 1.56 2.67 2.68 4.55 3.39 2.16.67 4.32.72 6.47.14h.03c2.09-.56 3.86-1.73 5.32-3.5.67-.93 1.1-1.81 1.27-2.66 1.09.04 1.87-.26 2.36-.89l-.01-.02c-.36.12-1.07.09-2.13-.12v-.11h.01c1.15-.12 1.83-.47 2.05-1.06-.81.3-1.6.31-2.38.03-.15-1.03-.66-1.96-1.54-2.81z" fill="#c6cacc"/></g></g></g></svg>