<svg xmlns="http://www.w3.org/2000/svg" viewBox="0 0 19 19" width="19" height="19">
	<style>
		tspan { white-space:pre }
		.shp0 { fill: #c6cacc } 
	</style>
	<g id="team">
		<g id="team 2">
			<g id="social icons">
				<path id="Shape 11" class="shp0" d="M9.6 9.22L9.6 9.19C9.6 9.2 9.59 9.21 9.59 9.22L9.6 9.22ZM15.82 2L2.18 2C1.53 2 1 2.51 1 3.15L1 16.85C1 17.49 1.53 18 2.18 18L15.82 18C16.47 18 17 17.49 17 16.85L17 3.15C17 2.51 16.47 2 15.82 2ZM5.85 15.39L3.43 15.39L3.43 8.17L5.85 8.17L5.85 15.39ZM4.64 7.18L4.63 7.18C3.81 7.18 3.29 6.63 3.29 5.93C3.29 5.23 3.83 4.69 4.66 4.69C5.48 4.69 5.99 5.23 6.01 5.93C6.01 6.63 5.48 7.18 4.64 7.18ZM14.56 15.39L12.15 15.39L12.15 11.53C12.15 10.56 11.8 9.89 10.92 9.89C10.26 9.89 9.86 10.34 9.68 10.77C9.62 10.93 9.6 11.14 9.6 11.36L9.6 15.39L7.19 15.39C7.19 15.39 7.22 8.85 7.19 8.17L9.6 8.17L9.6 9.19C9.93 8.7 10.5 8 11.78 8C13.37 8 14.56 9.03 14.56 11.25L14.56 15.39Z" />
			</g>
		</g>
	</g>
</svg>