<svg xmlns="http://www.w3.org/2000/svg" viewBox="0 0 19 18" width="19" height="18">
	<style>
		tspan { white-space:pre }
		.shp0 { fill: #ffffff } 
	</style>
	<g id="footer">
		<g id="share">
			<g id="social icons">
				<path id="Shape 11" class="shp0" d="M10.6 8.22L10.6 8.19C10.6 8.2 10.59 8.21 10.59 8.22L10.6 8.22ZM16.82 1L3.18 1C2.53 1 2 1.51 2 2.15L2 15.85C2 16.49 2.53 17 3.18 17L16.82 17C17.47 17 18 16.49 18 15.85L18 2.15C18 1.51 17.47 1 16.82 1ZM6.85 14.39L4.43 14.39L4.43 7.17L6.85 7.17L6.85 14.39ZM5.64 6.18L5.63 6.18C4.81 6.18 4.29 5.63 4.29 4.93C4.29 4.23 4.83 3.69 5.66 3.69C6.48 3.69 6.99 4.23 7.01 4.93C7.01 5.63 6.48 6.18 5.64 6.18ZM15.56 14.39L13.15 14.39L13.15 10.53C13.15 9.56 12.8 8.89 11.92 8.89C11.26 8.89 10.86 9.34 10.68 9.77C10.62 9.93 10.6 10.14 10.6 10.36L10.6 14.39L8.19 14.39C8.19 14.39 8.22 7.85 8.19 7.17L10.6 7.17L10.6 8.19C10.93 7.7 11.5 7 12.78 7C14.37 7 15.56 8.03 15.56 10.25L15.56 14.39Z" />
			</g>
		</g>
	</g>
</svg>